#!Matlab matrix to amc conversion
:FULLY-SPECIFIED
:DEGREES
116
root 1.204869 1.972334 52.947476 8.469848 0.168842 6.298980
lowerback -4.543608 -3.025268 -7.555979
upperback -0.459475 -3.679166 2.545935
thorax 2.702852 -1.932247 6.621340
lowerneck -26.393713 -2.386807 -11.458895
upperneck 19.471415 -1.665300 11.528583
head 10.908618 -0.263159 5.940235
rclavicle -0.000000 0.000000
rhumerus -45.035301 -18.192113 -50.443344
rradius 11.900676
rwrist 35.135795
rhand -28.856200 -18.800500
rfingers 7.125020
rthumb -2.212790 -48.768800
lclavicle -0.000000 0.000000
lhumerus -19.293686 -7.761089 80.492123
lradius 39.074695
lwrist -3.500762
lhand -19.668800 -28.799300
lfingers 7.125020
lthumb 6.659510 1.076010
rfemur -45.143331 6.132406 16.340229
rtibia 42.996050
rfoot -5.237136 -3.489646
rtoes -20.766800
lfemur 25.790919 9.462841 -22.484963
ltibia -1.298048
lfoot 7.640736 -7.927623
ltoes -22.051700
117
root 1.123611 1.955856 53.474525 8.021556 1.365686 3.521349
lowerback -5.527954 -3.962359 -4.933617
upperback -0.471518 -5.058104 2.650655
thorax 3.211151 -2.609342 5.020949
lowerneck -23.342925 -0.215816 -10.219112
upperneck 18.332246 1.672890 7.537449
head 9.500425 0.888062 4.541057
rclavicle 0.000000 0.000000
rhumerus -47.655507 -20.684012 -42.583414
rradius 9.798247
rwrist 41.339958
rhand -28.856200 -18.800500
rfingers 7.125020
rthumb -2.212790 -48.768800
lclavicle 0.000000 0.000000
lhumerus -15.742402 -22.913378 81.704566
lradius 45.663242
lwrist 13.059894
lhand -19.668800 -28.799300
lfingers 7.125020
lthumb 6.659510 1.076010
rfemur -46.361340 3.923454 16.566562
rtibia 44.317093
rfoot -7.647568 0.491590
rtoes -20.766800
lfemur 18.809906 7.885203 -22.940500
ltibia 14.139664
lfoot -11.864068 -2.394108
ltoes -22.051700
118
root 1.062867 1.978132 53.994039 7.777607 1.772139 1.996189
lowerback -4.870922 -4.421931 -4.069841
upperback -0.831580 -5.755378 3.643540
thorax 2.570767 -2.938614 5.571027
lowerneck -23.400806 0.172610 -10.405018
upperneck 18.918408 2.136107 8.125196
head 9.695738 1.126924 4.904003
rclavicle 0.000000 -0.000000
rhumerus -47.553220 -21.097638 -41.694570
rradius 10.247977
rwrist 42.238184
rhand -28.856200 -18.800500
rfingers 7.125020
rthumb -2.212790 -48.768800
lclavicle 0.000000 -0.000000
lhumerus -19.197860 -18.884169 83.235615
lradius 44.328479
lwrist 9.284605
lhand -19.668800 -28.799300
lfingers 7.125020
lthumb 6.659510 1.076010
rfemur -43.443282 2.194777 19.927443
rtibia 45.401487
rfoot -10.307681 2.186741
rtoes -20.766800
lfemur 11.001349 10.737743 -19.013217
ltibia 32.376715
lfoot -5.884708 -1.665713
ltoes -22.051700
119
root 1.001198 2.035471 54.498652 6.799746 3.038761 -0.973392
lowerback -4.527911 -4.217548 -1.031310
upperback -0.813644 -5.702544 4.523647
thorax 2.156557 -2.880242 4.852171
lowerneck -23.961351 -0.558878 -9.728690
upperneck 16.365091 1.025799 8.181529
head 8.976927 0.734103 4.551215
rclavicle 0.000000 -0.000000
rhumerus -42.940842 -6.668772 -60.217546
rradius 13.806177
rwrist 7.284449
rhand -28.856200 -18.800500
rfingers 7.125020
rthumb -2.212790 -48.768800
lclavicle 0.000000 -0.000000
lhumerus -24.275221 -14.330581 83.854385
lradius 44.618527
lwrist 5.460455
lhand -19.668800 -28.799300
lfingers 7.125020
lthumb 6.659510 1.076010
rfemur -38.011104 2.244217 24.482267
rtibia 44.232579
rfoot -14.012423 0.493473
rtoes -20.766800
lfemur 6.348820 9.858795 -13.707027
ltibia 44.505012
lfoot 6.338612 -0.405406
ltoes -22.051700
120
root 0.940474 2.097031 54.925458 6.436124 4.182697 -3.499429
lowerback -4.133771 -4.101345 1.022799
upperback -0.749392 -5.670727 5.200114
thorax 1.874930 -2.853020 4.434543
lowerneck -23.371879 -1.148726 -10.656327
upperneck 14.960360 0.364214 8.830462
head 8.428649 0.448826 4.784266
rclavicle 0.000000 -0.000000
rhumerus -42.097876 -0.552017 -65.835594
rradius 16.018871
rwrist -5.261451
rhand -28.856200 -18.800500
rfingers 7.125020
rthumb -2.212790 -48.768800
lclavicle 0.000000 -0.000000
lhumerus -25.787518 -15.960099 84.990335
lradius 44.744456
lwrist 7.469976
lhand -19.668800 -28.799300
lfingers 7.125020
lthumb 6.659510 1.076010
rfemur -34.678822 1.451421 27.540291
rtibia 42.265970
rfoot -15.083821 0.608659
rtoes -20.766800
lfemur -0.415441 9.113832 -10.924746
ltibia 56.942341
lfoot 6.822527 4.180678
ltoes -22.051700
121
root 0.904716 2.171900 55.341728 6.551356 4.734617 -4.062858
lowerback -3.860287 -3.735131 1.168241
upperback -0.769383 -5.178892 5.358999
thorax 1.669233 -2.605961 4.568775
lowerneck -22.516742 -1.819836 -11.430224
upperneck 13.600722 -0.540421 9.577833
head 7.883767 0.076995 4.997871
rclavicle 0.000000 -0.000000
rhumerus -42.443303 1.303415 -67.532725
rradius 18.241990
rwrist -8.034812
rhand -28.856200 -18.800500
rfingers 7.125020
rthumb -2.212790 -48.768800
lclavicle 0.000000 -0.000000
lhumerus -26.649395 -16.104998 85.855671
lradius 42.966161
lwrist 8.177421
lhand -19.668800 -28.799300
lfingers 7.125020
lthumb 6.659510 1.076010
rfemur -32.003944 0.661572 28.663942
rtibia 40.318281
rfoot -15.819975 1.103776
rtoes -20.766800
lfemur -6.490486 8.959497 -10.391062
ltibia 65.082087
lfoot 3.323143 8.616168
ltoes -22.051700
122
root 0.887681 2.268239 55.775942 6.829040 4.813299 -3.668685
lowerback -3.713102 -3.257998 0.377738
upperback -0.823089 -4.488172 5.242481
thorax 1.529010 -2.263184 4.952016
lowerneck -21.713855 -2.460705 -12.082495
upperneck 12.466245 -1.401183 10.146056
head 7.441072 -0.294305 5.145213
rclavicle 0.000000 -0.000000
rhumerus -42.491448 3.181349 -69.213789
rradius 20.070342
rwrist -9.977945
rhand -28.856200 -18.800500
rfingers 7.125020
rthumb -2.212790 -48.768800
lclavicle 0.000000 -0.000000
lhumerus -27.422754 -16.272258 86.718477
lradius 41.016974
lwrist 8.514632
lhand -19.668800 -28.799300
lfingers 7.125020
lthumb 6.659510 1.076010
rfemur -29.850429 0.405277 28.634734
rtibia 38.691430
rfoot -16.341749 1.346186
rtoes -20.766800
lfemur -11.243417 9.001547 -11.211852
ltibia 69.773937
lfoot -0.786228 11.884070
ltoes -22.051700
123
root 0.885333 2.375577 56.230553 7.055167 4.546907 -3.133526
lowerback -3.689831 -2.836148 -0.443256
upperback -0.800811 -3.877763 5.071407
thorax 1.538973 -1.962073 5.279790
lowerneck -21.271236 -2.882725 -12.531742
upperneck 11.877016 -1.927291 10.433766
head 7.225302 -0.538786 5.229555
rclavicle 0.000000 -0.000000
rhumerus -41.976773 4.069702 -69.893670
rradius 20.850604
rwrist -9.896610
rhand -28.856200 -18.800500
rfingers 7.125020
rthumb -2.212790 -48.768800
lclavicle 0.000000 -0.000000
lhumerus -28.180740 -16.867031 87.541225
lradius 39.353335
lwrist 8.386612
lhand -19.668800 -28.799300
lfingers 7.125020
lthumb 6.659510 1.076010
rfemur -28.167677 0.652088 28.263566
rtibia 37.504441
rfoot -16.666028 1.368042
rtoes -20.766800
lfemur -14.719711 9.186671 -12.418450
ltibia 72.294820
lfoot -4.104823 13.343503
ltoes -22.051700
124
root 0.896131 2.481599 56.700761 7.058578 4.128992 -2.981712
lowerback -3.732850 -2.580006 -0.728070
upperback -0.651167 -3.526554 5.003191
thorax 1.711968 -1.790178 5.381764
lowerneck -21.392837 -2.975274 -12.604244
upperneck 11.994271 -1.989267 10.366530
head 7.296941 -0.587142 5.216025
rclavicle 0.000000 -0.000000
rhumerus -40.920527 3.368591 -69.329853
rradius 20.527018
rwrist -7.754181
rhand -28.856200 -18.800500
rfingers 7.125020
rthumb -2.212790 -48.768800
lclavicle 0.000000 -0.000000
lhumerus -28.953285 -17.919691 88.389775
lradius 37.808108
lwrist 7.630359
lhand -19.668800 -28.799300
lfingers 7.125020
lthumb 6.659510 1.076010
rfemur -26.726063 1.247981 28.082676
rtibia 36.695575
rfoot -16.948799 1.279211
rtoes -20.766800
lfemur -17.214909 9.498246 -13.299746
ltibia 73.992799
lfoot -6.001770 13.541818
ltoes -22.051700
125
root 0.915321 2.577105 57.173637 6.869699 3.648547 -3.108234
lowerback -3.760027 -2.453514 -0.661125
upperback -0.450543 -3.369530 5.008657
thorax 1.928057 -1.714741 5.345240
lowerneck -21.858754 -2.806317 -12.337890
upperneck 12.771092 -1.715154 9.995560
head 7.614911 -0.494524 5.106855
rclavicle -0.000000 0.000000
rhumerus -39.738081 0.922820 -67.511514
rradius 19.314539
rwrist -3.564785
rhand -28.856200 -18.800500
rfingers 7.125020
rthumb -2.212790 -48.768800
lclavicle -0.000000 0.000000
lhumerus -29.641756 -19.261304 89.258626
lradius 36.371839
lwrist 6.683758
lhand -19.668800 -28.799300
lfingers 7.125020
lthumb 6.659510 1.076010
rfemur -25.421932 1.947604 28.008775
rtibia 36.156860
rfoot -17.294916 1.268501
rtoes -20.766800
lfemur -18.961017 9.993242 -13.914397
ltibia 75.348637
lfoot -6.671848 13.986062
ltoes -22.051700
126
root 0.934973 2.657443 57.633654 6.628660 3.150110 -3.279851
lowerback -3.683207 -2.362746 -0.586177
upperback -0.303128 -3.253804 5.003007
thorax 2.031510 -1.659539 5.300606
lowerneck -22.382244 -2.545439 -11.927343
upperneck 14.142977 -1.366371 9.513011
head 8.148396 -0.374243 4.964708
rclavicle -0.000000 0.000000
rhumerus -38.644612 -3.126075 -64.603613
rradius 17.482970
rwrist 2.738232
rhand -28.856200 -18.800500
rfingers 7.125020
rthumb -2.212790 -48.768800
lclavicle -0.000000 0.000000
lhumerus -30.155677 -20.812790 90.117657
lradius 35.222697
lwrist 6.005519
lhand -19.668800 -28.799300
lfingers 7.125020
lthumb 6.659510 1.076010
rfemur -24.154858 2.564181 27.862508
rtibia 35.671314
rfoot -17.691986 1.360278
rtoes -20.766800
lfemur -20.363240 10.694605 -14.568013
ltibia 76.407236
lfoot -7.159329 15.220122
ltoes -22.051700
127
root 0.948885 2.719709 58.071250 6.456959 2.669520 -3.387042
lowerback -3.493767 -2.195736 -0.671368
upperback -0.238331 -3.019501 4.935478
thorax 1.978613 -1.544275 5.304278
lowerneck -22.878612 -2.398984 -11.588280
upperneck 15.824970 -1.239658 9.238842
head 8.822906 -0.335483 4.888922
rclavicle -0.000000 0.000000
rhumerus -37.349002 -7.101123 -62.108307
rradius 15.796796
rwrist 8.926448
rhand -28.856200 -18.800500
rfingers 7.125020
rthumb -2.212790 -48.768800
lclavicle -0.000000 0.000000
lhumerus -30.633186 -22.380244 90.967038
lradius 34.196695
lwrist 5.648890
lhand -19.668800 -28.799300
lfingers 7.125020
lthumb 6.659510 1.076010
rfemur -22.733334 3.117685 27.617566
rtibia 35.023326
rfoot -18.174808 1.317096
rtoes -20.766800
lfemur -22.101665 11.478472 -15.454430
ltibia 77.212663
lfoot -8.503981 16.500399
ltoes -22.051700
128
root 0.956586 2.761093 58.486868 6.453185 2.076824 -3.384820
lowerback -3.338674 -1.783863 -0.799783
upperback -0.197117 -2.455589 4.753407
thorax 1.889047 -1.262358 5.233012
lowerneck -23.209253 -2.508529 -11.473837
upperneck 16.856117 -1.493008 9.378906
head 9.283455 -0.428608 4.921613
rclavicle -0.000000 0.000000
rhumerus -35.669469 -7.955246 -62.423383
rradius 15.417113
rwrist 10.922141
rhand -28.856200 -18.800500
rfingers 7.125020
rthumb -2.212790 -48.768800
lclavicle -0.000000 0.000000
lhumerus -31.618648 -23.297156 91.570975
lradius 32.979084
lwrist 5.229801
lhand -19.668800 -28.799300
lfingers 7.125020
lthumb 6.659510 1.076010
rfemur -21.059899 3.752271 27.471053
rtibia 34.259485
rfoot -18.861796 1.018457
rtoes -20.766800
lfemur -24.870423 12.146930 -16.481333
ltibia 77.642173
lfoot -10.666846 17.026389
ltoes -22.051700
129
root 0.962552 2.779110 58.887086 6.692790 1.118106 -3.420225
lowerback -3.314244 -1.019947 -0.557640
upperback -0.163455 -1.443119 4.451211
thorax 1.817661 -0.752485 4.840130
lowerneck -23.161535 -2.861987 -11.703913
upperneck 16.357868 -2.020580 9.878316
head 9.162927 -0.619492 5.049633
rclavicle -0.000000 0.000000
rhumerus -33.708730 -3.778889 -66.228467
rradius 17.008175
rwrist 7.401288
rhand -28.856200 -18.800500
rfingers 7.125020
rthumb -2.212790 -48.768800
lclavicle -0.000000 0.000000
lhumerus -33.751259 -22.939436 91.620994
lradius 31.556254
lwrist 4.254934
lhand -19.668800 -28.799300
lfingers 7.125020
lthumb 6.659510 1.076010
rfemur -19.021814 4.400430 27.801936
rtibia 33.386538
rfoot -19.829724 0.712071
rtoes -20.766800
lfemur -29.212931 12.599594 -17.390559
ltibia 77.107445
lfoot -13.018126 16.387490
ltoes -22.051700
